<svg width="110" height="29" viewBox="0 0 110 29" fill="none" xmlns="http://www.w3.org/2000/svg">
<rect width="110" height="29" rx="10" fill="#152620"/>
<path d="M0 0H66V19H0V0Z" fill="#152620"/>
<path d="M36.8587 19V11.9091H38.5298V19H36.8587ZM37.6989 10.9027C37.4342 10.9027 37.2064 10.815 37.0156 10.6396C36.8248 10.4611 36.7294 10.2472 36.7294 9.99787C36.7294 9.7455 36.8248 9.5316 37.0156 9.35618C37.2064 9.17767 37.4342 9.08842 37.6989 9.08842C37.9666 9.08842 38.1944 9.17767 38.3821 9.35618C38.5729 9.5316 38.6683 9.7455 38.6683 9.99787C38.6683 10.2472 38.5729 10.4611 38.3821 10.6396C38.1944 10.815 37.9666 10.9027 37.6989 10.9027ZM41.9195 14.8452V19H40.2483V11.9091H41.8456V13.114H41.9287C42.0918 12.717 42.3519 12.4015 42.7089 12.1676C43.069 11.9337 43.5137 11.8168 44.0431 11.8168C44.5324 11.8168 44.9587 11.9214 45.3218 12.1307C45.6881 12.34 45.9712 12.6431 46.1713 13.0401C46.3744 13.4371 46.4744 13.9188 46.4713 14.4851V19H44.8002V14.7436C44.8002 14.2696 44.6771 13.8988 44.4308 13.631C44.1877 13.3633 43.8507 13.2294 43.4198 13.2294C43.1275 13.2294 42.8674 13.294 42.6396 13.4233C42.415 13.5495 42.238 13.7326 42.1088 13.9727C41.9826 14.2127 41.9195 14.5036 41.9195 14.8452ZM53.7746 13.7834L52.2512 13.9496C52.2081 13.7957 52.1327 13.651 52.0249 13.5156C51.9203 13.3802 51.7787 13.271 51.6002 13.1879C51.4217 13.1048 51.2032 13.0632 50.9447 13.0632C50.5969 13.0632 50.3045 13.1386 50.0676 13.2894C49.8337 13.4402 49.7182 13.6357 49.7213 13.8757C49.7182 14.0819 49.7936 14.2496 49.9475 14.3789C50.1045 14.5082 50.363 14.6143 50.7231 14.6974L51.9326 14.956C52.6035 15.1006 53.1021 15.3299 53.4284 15.6438C53.7577 15.9577 53.9239 16.3686 53.9269 16.8764C53.9239 17.3227 53.7931 17.7166 53.5345 18.0582C53.2791 18.3968 52.9236 18.6615 52.4681 18.8523C52.0126 19.0431 51.4894 19.1385 50.8985 19.1385C50.0306 19.1385 49.332 18.9569 48.8026 18.5938C48.2733 18.2275 47.9578 17.7182 47.8563 17.0657L49.4859 16.9087C49.5597 17.2288 49.7167 17.4704 49.9568 17.6335C50.1968 17.7966 50.5092 17.8782 50.8939 17.8782C51.2909 17.8782 51.6095 17.7966 51.8495 17.6335C52.0927 17.4704 52.2142 17.2688 52.2142 17.0288C52.2142 16.8256 52.1357 16.6579 51.9788 16.5256C51.8249 16.3932 51.5848 16.2917 51.2586 16.2209L50.0491 15.967C49.3689 15.8254 48.8657 15.5869 48.5395 15.2514C48.2133 14.9129 48.0517 14.4851 48.0548 13.968C48.0517 13.531 48.1702 13.1525 48.4102 12.8324C48.6534 12.5092 48.9904 12.2599 49.4213 12.0845C49.8552 11.906 50.3553 11.8168 50.9216 11.8168C51.7526 11.8168 52.4066 11.9937 52.8836 12.3477C53.3637 12.7016 53.6607 13.1802 53.7746 13.7834ZM58.8458 11.9091V13.2017H54.7694V11.9091H58.8458ZM55.7758 10.2102H57.447V16.8672C57.447 17.0919 57.4809 17.2642 57.5486 17.3842C57.6193 17.5012 57.7117 17.5812 57.8256 17.6243C57.9394 17.6674 58.0656 17.6889 58.2041 17.6889C58.3087 17.6889 58.4041 17.6812 58.4903 17.6658C58.5796 17.6504 58.6473 17.6366 58.6934 17.6243L58.9751 18.9308C58.8858 18.9615 58.7581 18.9954 58.5919 19.0323C58.4288 19.0692 58.2287 19.0908 57.9917 19.0969C57.5732 19.1093 57.1962 19.0462 56.8607 18.9077C56.5252 18.7661 56.259 18.5476 56.0621 18.2521C55.8682 17.9567 55.7728 17.5874 55.7758 17.1442V10.2102ZM62.2839 19.1431C61.8346 19.1431 61.4299 19.0631 61.0698 18.9031C60.7128 18.7399 60.4296 18.4999 60.2203 18.1829C60.0141 17.8659 59.911 17.475 59.911 17.0103C59.911 16.6102 59.9849 16.2794 60.1326 16.0178C60.2804 15.7562 60.4819 15.5469 60.7374 15.3899C60.9928 15.233 61.2806 15.1145 61.6007 15.0344C61.9238 14.9513 62.2578 14.8913 62.6025 14.8544C63.0179 14.8113 63.3549 14.7728 63.6135 14.739C63.872 14.7021 64.0597 14.6467 64.1767 14.5728C64.2967 14.4959 64.3567 14.3774 64.3567 14.2173V14.1896C64.3567 13.8419 64.2536 13.5726 64.0474 13.3817C63.8412 13.1909 63.5442 13.0955 63.1564 13.0955C62.7471 13.0955 62.4224 13.1848 62.1824 13.3633C61.9454 13.5418 61.7853 13.7526 61.7022 13.9957L60.1419 13.7741C60.265 13.3433 60.4681 12.9832 60.7512 12.6939C61.0344 12.4015 61.3806 12.183 61.79 12.0384C62.1993 11.8906 62.6517 11.8168 63.1472 11.8168C63.4888 11.8168 63.8289 11.8568 64.1674 11.9368C64.506 12.0168 64.8153 12.1491 65.0953 12.3338C65.3754 12.5154 65.6001 12.7631 65.7694 13.0771C65.9417 13.391 66.0279 13.7834 66.0279 14.2543V19H64.4213V18.0259H64.3659C64.2644 18.2229 64.1213 18.4076 63.9366 18.5799C63.755 18.7492 63.5257 18.8861 63.2488 18.9908C62.9748 19.0923 62.6532 19.1431 62.2839 19.1431ZM62.7179 17.9151C63.0533 17.9151 63.3442 17.849 63.5904 17.7166C63.8366 17.5812 64.0259 17.4027 64.1582 17.1811C64.2936 16.9595 64.3613 16.7179 64.3613 16.4563V15.6207C64.309 15.6638 64.2198 15.7038 64.0936 15.7408C63.9705 15.7777 63.832 15.81 63.6781 15.8377C63.5242 15.8654 63.3719 15.89 63.2211 15.9116C63.0703 15.9331 62.9395 15.9516 62.8287 15.967C62.5794 16.0008 62.3562 16.0562 62.1593 16.1332C61.9623 16.2101 61.8069 16.3178 61.693 16.4563C61.5791 16.5917 61.5222 16.7672 61.5222 16.9826C61.5222 17.2904 61.6345 17.5227 61.8592 17.6797C62.0839 17.8366 62.3701 17.9151 62.7179 17.9151ZM70.7921 21.8068C70.1919 21.8068 69.6764 21.7253 69.2456 21.5621C68.8147 21.4021 68.4685 21.1867 68.2069 20.9158C67.9453 20.645 67.7637 20.3449 67.6621 20.0156L69.1671 19.6509C69.2348 19.7894 69.3333 19.9264 69.4625 20.0618C69.5918 20.2003 69.7657 20.3142 69.9842 20.4034C70.2058 20.4957 70.4843 20.5419 70.8198 20.5419C71.2937 20.5419 71.6861 20.4265 71.997 20.1957C72.3078 19.9679 72.4632 19.5924 72.4632 19.0692V17.7259H72.3801C72.294 17.8982 72.1678 18.0752 72.0016 18.2567C71.8385 18.4383 71.6215 18.5907 71.3507 18.7138C71.0829 18.8369 70.7459 18.8984 70.3397 18.8984C69.7949 18.8984 69.301 18.7707 68.8578 18.5153C68.4177 18.2567 68.0668 17.872 67.8052 17.3612C67.5467 16.8472 67.4174 16.204 67.4174 15.4315C67.4174 14.6528 67.5467 13.9957 67.8052 13.4602C68.0668 12.9216 68.4192 12.5138 68.8624 12.2369C69.3056 11.9568 69.7995 11.8168 70.3443 11.8168C70.7598 11.8168 71.1014 11.8875 71.3691 12.0291C71.64 12.1676 71.8554 12.3353 72.0154 12.5323C72.1755 12.7262 72.2971 12.9093 72.3801 13.0817H72.4725V11.9091H74.1206V19.1154C74.1206 19.7217 73.9759 20.2234 73.6866 20.6204C73.3973 21.0174 73.0018 21.3144 72.5002 21.5114C71.9985 21.7083 71.4292 21.8068 70.7921 21.8068ZM70.8059 17.5874C71.1599 17.5874 71.4615 17.5012 71.7108 17.3288C71.96 17.1565 72.1493 16.9087 72.2786 16.5856C72.4078 16.2624 72.4725 15.8746 72.4725 15.4222C72.4725 14.976 72.4078 14.5851 72.2786 14.2496C72.1524 13.9142 71.9647 13.6541 71.7154 13.4695C71.4692 13.2817 71.166 13.1879 70.8059 13.1879C70.4335 13.1879 70.1227 13.2848 69.8734 13.4787C69.6241 13.6726 69.4364 13.9388 69.3102 14.2773C69.184 14.6128 69.1209 14.9944 69.1209 15.4222C69.1209 15.8562 69.184 16.2363 69.3102 16.5625C69.4395 16.8857 69.6287 17.138 69.878 17.3196C70.1304 17.4981 70.4397 17.5874 70.8059 17.5874ZM75.8333 19V11.9091H77.4537V13.0909H77.5275C77.6568 12.6816 77.8784 12.3661 78.1923 12.1445C78.5093 11.9199 78.8709 11.8075 79.2772 11.8075C79.3695 11.8075 79.4726 11.8121 79.5865 11.8214C79.7034 11.8275 79.8004 11.8383 79.8773 11.8537V13.391C79.8065 13.3664 79.6942 13.3448 79.5403 13.3263C79.3895 13.3048 79.2433 13.294 79.1017 13.294C78.7971 13.294 78.5231 13.3602 78.28 13.4925C78.04 13.6218 77.8507 13.8018 77.7122 14.0327C77.5737 14.2635 77.5044 14.5297 77.5044 14.8313V19H75.8333ZM82.9011 19.1431C82.4518 19.1431 82.0471 19.0631 81.687 18.9031C81.33 18.7399 81.0468 18.4999 80.8375 18.1829C80.6313 17.8659 80.5282 17.475 80.5282 17.0103C80.5282 16.6102 80.6021 16.2794 80.7498 16.0178C80.8975 15.7562 81.0991 15.5469 81.3546 15.3899C81.61 15.233 81.8978 15.1145 82.2179 15.0344C82.541 14.9513 82.8749 14.8913 83.2196 14.8544C83.6351 14.8113 83.9721 14.7728 84.2306 14.739C84.4892 14.7021 84.6769 14.6467 84.7939 14.5728C84.9139 14.4959 84.9739 14.3774 84.9739 14.2173V14.1896C84.9739 13.8419 84.8708 13.5726 84.6646 13.3817C84.4584 13.1909 84.1614 13.0955 83.7736 13.0955C83.3643 13.0955 83.0396 13.1848 82.7995 13.3633C82.5626 13.5418 82.4025 13.7526 82.3194 13.9957L80.7591 13.7741C80.8822 13.3433 81.0853 12.9832 81.3684 12.6939C81.6516 12.4015 81.9978 12.183 82.4071 12.0384C82.8165 11.8906 83.2689 11.8168 83.7644 11.8168C84.106 11.8168 84.4461 11.8568 84.7846 11.9368C85.1232 12.0168 85.4325 12.1491 85.7125 12.3338C85.9926 12.5154 86.2173 12.7631 86.3865 13.0771C86.5589 13.391 86.6451 13.7834 86.6451 14.2543V19H85.0385V18.0259H84.9831C84.8816 18.2229 84.7385 18.4076 84.5538 18.5799C84.3722 18.7492 84.1429 18.8861 83.8659 18.9908C83.592 19.0923 83.2704 19.1431 82.9011 19.1431ZM83.335 17.9151C83.6705 17.9151 83.9614 17.849 84.2076 17.7166C84.4538 17.5812 84.6431 17.4027 84.7754 17.1811C84.9108 16.9595 84.9785 16.7179 84.9785 16.4563V15.6207C84.9262 15.6638 84.8369 15.7038 84.7108 15.7408C84.5877 15.7777 84.4492 15.81 84.2953 15.8377C84.1414 15.8654 83.9891 15.89 83.8382 15.9116C83.6874 15.9331 83.5566 15.9516 83.4458 15.967C83.1966 16.0008 82.9734 16.0562 82.7765 16.1332C82.5795 16.2101 82.4241 16.3178 82.3102 16.4563C82.1963 16.5917 82.1394 16.7672 82.1394 16.9826C82.1394 17.2904 82.2517 17.5227 82.4764 17.6797C82.7011 17.8366 82.9873 17.9151 83.335 17.9151ZM88.3255 19V11.9091H89.9228V13.114H90.0059C90.1536 12.7077 90.3983 12.3907 90.7399 12.163C91.0815 11.9322 91.4893 11.8168 91.9632 11.8168C92.4434 11.8168 92.8481 11.9337 93.1774 12.1676C93.5098 12.3984 93.7437 12.7139 93.8791 13.114H93.9529C94.1099 12.7201 94.3746 12.4061 94.747 12.1722C95.1225 11.9353 95.5672 11.8168 96.0811 11.8168C96.7336 11.8168 97.266 12.023 97.6784 12.4354C98.0909 12.8478 98.2971 13.4495 98.2971 14.2404V19H96.6213V14.4989C96.6213 14.0588 96.5043 13.7372 96.2704 13.5341C96.0365 13.3279 95.7503 13.2248 95.4118 13.2248C95.0086 13.2248 94.6931 13.351 94.4654 13.6033C94.2407 13.8526 94.1284 14.1773 94.1284 14.5774V19H92.4895V14.4297C92.4895 14.0634 92.3787 13.7711 92.1571 13.5526C91.9386 13.334 91.6524 13.2248 91.2985 13.2248C91.0584 13.2248 90.8399 13.2863 90.6429 13.4094C90.446 13.5295 90.289 13.7003 90.1721 13.9219C90.0551 14.1404 89.9966 14.3958 89.9966 14.6882V19H88.3255Z" fill="white"/>
<g filter="url(#filter0_i_101_25)">
<path d="M13.9469 6.54542C12.626 6.60047 11.6883 6.76011 10.6528 7.09592C9.91083 7.34365 9.70699 7.44274 9.0547 7.88314C8.40242 8.32355 8.25565 8.46117 7.88874 8.96213C7.08154 10.0907 7 10.5971 7 14.7424C7 18.8877 7.08154 19.3942 7.88874 20.5227C8.25565 21.0237 8.40242 21.1613 9.0547 21.6017C9.70699 22.0421 9.91083 22.1412 10.6528 22.3889C12.2998 22.9284 13.3027 23 19.2141 23C25.1254 23 26.1283 22.9284 27.7753 22.3889C28.5173 22.1412 28.7211 22.0421 29.3734 21.6017C30.0257 21.1613 30.1725 21.0237 30.5394 20.5227C31.3384 19.4107 31.4444 18.7336 31.4444 14.7424C31.4444 10.7513 31.3384 10.0742 30.5394 8.96213C30.1725 8.46117 30.0257 8.32355 29.3734 7.88314C28.7211 7.44274 28.5173 7.34365 27.7753 7.09592C26.7317 6.75461 25.8103 6.60047 24.4405 6.54542C23.1522 6.48486 15.2677 6.48486 13.9469 6.54542ZM25.3129 8.10334C27.49 8.38961 28.6396 9.17683 29.0554 10.6797C29.1859 11.1366 29.2022 11.5935 29.2022 14.7424C29.2022 17.8913 29.1859 18.3482 29.0554 18.8052C28.6315 20.3301 27.49 21.1008 25.2314 21.387C24.5547 21.4751 23.8779 21.4861 19.2141 21.4861C14.5502 21.4861 13.8735 21.4751 13.1967 21.387C10.9708 21.1063 9.80483 20.3301 9.38085 18.8602C9.27485 18.4914 9.24224 17.8363 9.20962 15.4581C9.16885 12.3973 9.23408 11.01 9.47054 10.3439C9.87822 9.20435 11.0279 8.42814 12.7401 8.1584C13.6941 8.00976 14.9253 7.98223 19.8664 7.99875C23.829 8.01526 24.7504 8.03178 25.3129 8.10334Z" fill="#0D758B"/>
<path d="M25.0443 9.47402C24.0088 9.87038 24.0332 10.8448 25.0851 11.2026C26.1287 11.5604 27.2865 11.0375 27.1887 10.2447C27.099 9.54008 25.9575 9.1272 25.0443 9.47402Z" fill="#0D758B"/>
<path d="M18.0807 10.5584C17.4692 10.6465 16.9147 10.7841 16.238 11.0153C15.3166 11.3291 14.167 12.1108 13.6941 12.7329C13.1152 13.4926 12.9766 13.889 12.9766 14.7423C12.9766 15.5955 13.1152 15.9919 13.6941 16.7516C14.1588 17.3737 15.3166 18.1554 16.238 18.4692C17.3632 18.86 17.9502 18.9536 19.2141 18.9536C20.4779 18.9536 21.0649 18.86 22.1901 18.4692C23.1115 18.1554 24.2693 17.3737 24.734 16.7516C25.3129 15.9919 25.4515 15.5955 25.4515 14.7423C25.4515 13.889 25.3129 13.4926 24.734 12.7329C24.2611 12.1108 23.1115 11.3291 22.1901 11.0153C21.1546 10.6575 20.5431 10.5474 19.4179 10.5254C18.8798 10.5144 18.2764 10.5309 18.0807 10.5584ZM20.1517 12.0723C20.9508 12.2099 21.4971 12.4246 22.0678 12.81C23.6985 13.9165 23.6985 15.568 22.0678 16.6745C20.4616 17.7645 17.9666 17.7645 16.3603 16.6745C14.7296 15.568 14.7296 13.9165 16.3603 12.81C17.3795 12.1163 18.8064 11.8411 20.1517 12.0723Z" fill="#0D758B"/>
</g>
<defs>
<filter id="filter0_i_101_25" x="7" y="6.5" width="24.4443" height="20.5" filterUnits="userSpaceOnUse" color-interpolation-filters="sRGB">
<feFlood flood-opacity="0" result="BackgroundImageFix"/>
<feBlend mode="normal" in="SourceGraphic" in2="BackgroundImageFix" result="shape"/>
<feColorMatrix in="SourceAlpha" type="matrix" values="0 0 0 0 0 0 0 0 0 0 0 0 0 0 0 0 0 0 127 0" result="hardAlpha"/>
<feOffset dy="4"/>
<feGaussianBlur stdDeviation="2"/>
<feComposite in2="hardAlpha" operator="arithmetic" k2="-1" k3="1"/>
<feColorMatrix type="matrix" values="0 0 0 0 0 0 0 0 0 0 0 0 0 0 0 0 0 0 0.25 0"/>
<feBlend mode="normal" in2="shape" result="effect1_innerShadow_101_25"/>
</filter>
</defs>
</svg>
