<svg width="96" height="29" viewBox="0 0 96 29" fill="none" xmlns="http://www.w3.org/2000/svg">
<rect width="96" height="29" rx="10" fill="#152620"/>
<path d="M0 0H66V19H0V0Z" fill="#152620"/>
<path d="M38.5298 9.54545V19H36.8587V9.54545H38.5298ZM40.2483 19V11.9091H41.9195V19H40.2483ZM41.0885 10.9027C40.8238 10.9027 40.5961 10.815 40.4053 10.6396C40.2145 10.4611 40.1191 10.2472 40.1191 9.99787C40.1191 9.7455 40.2145 9.5316 40.4053 9.35618C40.5961 9.17767 40.8238 9.08842 41.0885 9.08842C41.3563 9.08842 41.584 9.17767 41.7718 9.35618C41.9626 9.5316 42.058 9.7455 42.058 9.99787C42.058 10.2472 41.9626 10.4611 41.7718 10.6396C41.584 10.815 41.3563 10.9027 41.0885 10.9027ZM45.3091 14.8452V19H43.638V11.9091H45.2353V13.114H45.3184C45.4815 12.717 45.7415 12.4015 46.0985 12.1676C46.4586 11.9337 46.9033 11.8168 47.4327 11.8168C47.9221 11.8168 48.3483 11.9214 48.7115 12.1307C49.0777 12.34 49.3609 12.6431 49.5609 13.0401C49.764 13.4371 49.8641 13.9188 49.861 14.4851V19H48.1898V14.7436C48.1898 14.2696 48.0667 13.8988 47.8205 13.631C47.5774 13.3633 47.2404 13.2294 46.8095 13.2294C46.5171 13.2294 46.257 13.294 46.0293 13.4233C45.8046 13.5495 45.6277 13.7326 45.4984 13.9727C45.3722 14.2127 45.3091 14.5036 45.3091 14.8452ZM53.0833 16.7749L53.0787 14.7575H53.3464L55.8947 11.9091H57.8475L54.7129 15.3991H54.3667L53.0833 16.7749ZM51.5598 19V9.54545H53.231V19H51.5598ZM56.0101 19L53.7019 15.7731L54.8283 14.5959L58.0091 19H56.0101ZM61.8084 19.1385C61.0975 19.1385 60.4835 18.9908 59.9664 18.6953C59.4525 18.3968 59.057 17.9751 58.78 17.4304C58.503 16.8826 58.3645 16.2378 58.3645 15.4961C58.3645 14.7667 58.503 14.1265 58.78 13.5756C59.0601 13.0217 59.4509 12.5908 59.9526 12.283C60.4542 11.9722 61.0436 11.8168 61.7207 11.8168C62.1577 11.8168 62.5701 11.8875 62.9579 12.0291C63.3488 12.1676 63.6935 12.383 63.992 12.6754C64.2936 12.9678 64.5306 13.3402 64.7029 13.7926C64.8753 14.242 64.9615 14.7775 64.9615 15.3991V15.9116H59.1493V14.7852H63.3596C63.3565 14.4651 63.2872 14.1804 63.1518 13.9311C63.0164 13.6787 62.8271 13.4802 62.584 13.3356C62.3439 13.1909 62.0639 13.1186 61.7438 13.1186C61.4022 13.1186 61.1021 13.2017 60.8436 13.3679C60.585 13.531 60.3835 13.7464 60.2388 14.0142C60.0972 14.2789 60.0249 14.5697 60.0218 14.8867V15.87C60.0218 16.2824 60.0972 16.6364 60.248 16.9318C60.3989 17.2242 60.6097 17.4489 60.8805 17.6058C61.1513 17.7597 61.4683 17.8366 61.8315 17.8366C62.0746 17.8366 62.2947 17.8028 62.4917 17.7351C62.6886 17.6643 62.8594 17.5612 63.0041 17.4258C63.1487 17.2904 63.258 17.1226 63.3319 16.9226L64.8922 17.098C64.7937 17.5104 64.606 17.8705 64.329 18.1783C64.0551 18.483 63.7042 18.7199 63.2765 18.8892C62.8487 19.0554 62.3593 19.1385 61.8084 19.1385ZM69.0067 19.1246C68.4496 19.1246 67.951 18.9815 67.5109 18.6953C67.0708 18.4091 66.723 17.9936 66.4676 17.4489C66.2122 16.9041 66.0844 16.2424 66.0844 15.4638C66.0844 14.6759 66.2137 14.0111 66.4722 13.4695C66.7338 12.9247 67.0862 12.5138 67.5294 12.2369C67.9726 11.9568 68.4665 11.8168 69.0113 11.8168C69.4268 11.8168 69.7684 11.8875 70.0361 12.0291C70.3039 12.1676 70.5162 12.3353 70.6732 12.5323C70.8302 12.7262 70.9517 12.9093 71.0379 13.0817H71.1072V9.54545H72.7829V19H71.1395V17.8828H71.0379C70.9517 18.0552 70.8271 18.2383 70.664 18.4322C70.5009 18.623 70.2854 18.7861 70.0177 18.9215C69.7499 19.0569 69.4129 19.1246 69.0067 19.1246ZM69.4729 17.7536C69.8269 17.7536 70.1285 17.6581 70.3778 17.4673C70.627 17.2734 70.8163 17.0041 70.9456 16.6594C71.0748 16.3147 71.1395 15.9131 71.1395 15.4545C71.1395 14.996 71.0748 14.5974 70.9456 14.2589C70.8194 13.9203 70.6317 13.6572 70.3824 13.4695C70.1362 13.2817 69.833 13.1879 69.4729 13.1879C69.1005 13.1879 68.7897 13.2848 68.5404 13.4787C68.2911 13.6726 68.1034 13.9403 67.9772 14.282C67.851 14.6236 67.7879 15.0144 67.7879 15.4545C67.7879 15.8977 67.851 16.2932 67.9772 16.641C68.1064 16.9857 68.2957 17.258 68.545 17.4581C68.7974 17.6551 69.1067 17.7536 69.4729 17.7536ZM74.5637 19V11.9091H76.2349V19H74.5637ZM75.4039 10.9027C75.1393 10.9027 74.9115 10.815 74.7207 10.6396C74.5299 10.4611 74.4345 10.2472 74.4345 9.99787C74.4345 9.7455 74.5299 9.5316 74.7207 9.35618C74.9115 9.17767 75.1393 9.08842 75.4039 9.08842C75.6717 9.08842 75.8994 9.17767 76.0872 9.35618C76.278 9.5316 76.3734 9.7455 76.3734 9.99787C76.3734 10.2472 76.278 10.4611 76.0872 10.6396C75.8994 10.815 75.6717 10.9027 75.4039 10.9027ZM79.6246 14.8452V19H77.9534V11.9091H79.5507V13.114H79.6338C79.7969 12.717 80.057 12.4015 80.414 12.1676C80.7741 11.9337 81.2188 11.8168 81.7481 11.8168C82.2375 11.8168 82.6637 11.9214 83.0269 12.1307C83.3931 12.34 83.6763 12.6431 83.8763 13.0401C84.0795 13.4371 84.1795 13.9188 84.1764 14.4851V19H82.5052V14.7436C82.5052 14.2696 82.3821 13.8988 82.1359 13.631C81.8928 13.3633 81.5558 13.2294 81.1249 13.2294C80.8325 13.2294 80.5725 13.294 80.3447 13.4233C80.1201 13.5495 79.9431 13.7326 79.8138 13.9727C79.6876 14.2127 79.6246 14.5036 79.6246 14.8452Z" fill="white"/>
<g filter="url(#filter0_i_101_14)">
<path d="M9.468 6.50499C9.05061 6.52595 8.61329 6.62267 8.26273 6.77259C7.92506 6.91686 7.60498 7.1369 7.39629 7.36823C7.32477 7.44641 7.21339 7.60278 7.16532 7.69305C7.10904 7.79461 7.04924 7.95742 7.02228 8.08074C7.00117 8.17424 7 8.39186 7 14.7505C7 21.1091 7.00117 21.3267 7.02228 21.4202C7.11373 21.8297 7.36932 22.1811 7.77968 22.464C7.98955 22.6075 8.19355 22.709 8.4597 22.8017C8.73288 22.8976 8.99785 22.9541 9.31089 22.9847C9.45745 22.9992 9.76698 23 19 23C28.2096 23 28.5425 22.9992 28.6903 22.9855C29.28 22.9275 29.8064 22.7485 30.2203 22.464C30.4278 22.3213 30.5767 22.1787 30.7116 21.9965C30.8499 21.8087 30.9343 21.6241 30.9789 21.4122C30.9988 21.3106 31 21.0817 31 14.7505C31 8.41927 30.9988 8.19036 30.9789 8.0888C30.9355 7.88327 30.8511 7.69547 30.7221 7.51734C30.5885 7.33357 30.4267 7.17882 30.2203 7.03696C30.014 6.8951 29.7889 6.78387 29.5215 6.69199C29.2753 6.60735 29.0373 6.55496 28.7372 6.5195L28.5848 6.50096L19.0879 6.50016C13.8647 6.49935 9.536 6.50177 9.468 6.50499ZM12.6465 8.79487C13.3887 8.84645 14.03 9.15435 14.3512 9.61216C14.5998 9.96681 14.6338 10.3666 14.4486 10.7357C14.1894 11.2524 13.5516 11.6215 12.7684 11.7086C12.5996 11.7271 12.2995 11.7271 12.1271 11.7086C10.7753 11.5627 9.96981 10.5826 10.4822 9.70485C10.61 9.48562 10.821 9.28331 11.0778 9.13581C11.5245 8.87789 12.0872 8.75537 12.6465 8.79487ZM24.0333 12.5372C24.7731 12.5928 25.3934 12.7387 25.9174 12.9789C26.1308 13.0764 26.2492 13.1417 26.4263 13.2594C27.1086 13.714 27.5202 14.3636 27.6409 15.1817C27.6738 15.4042 27.6761 15.6435 27.6761 18.1373V20.715H25.8881H24.1001L24.0966 18.4678C24.0931 16.0498 24.0955 16.1836 24.0357 15.9482C23.9184 15.4896 23.6452 15.1527 23.2361 14.9617C23.1387 14.9165 22.9664 14.8585 22.8456 14.8303C22.3567 14.7182 21.6779 14.7408 21.196 14.8867C20.6051 15.0648 20.2064 15.4461 20.0564 15.9756C19.9872 16.219 19.9919 16.0393 19.9884 18.4799L19.9849 20.715H18.2614H16.5379V16.7373V12.7596H18.2614H19.9849V13.2884V13.8171L20.0529 13.7462C20.1818 13.6124 20.3307 13.4891 20.5359 13.3472C20.8783 13.1102 21.1936 12.9523 21.6134 12.808C22.039 12.6621 22.5314 12.5654 23.0098 12.5348C23.0836 12.5299 23.1657 12.5243 23.1915 12.5227C23.2935 12.5154 23.8809 12.5259 24.0333 12.5372ZM14.2574 16.7373V20.7109H12.4636H10.6698L10.6662 16.7454C10.6651 14.5643 10.6662 12.7749 10.6698 12.7693C10.6733 12.7612 11.0391 12.7596 12.466 12.7612L14.2574 12.7637V16.7373Z" fill="#0D758B"/>
</g>
<defs>
<filter id="filter0_i_101_14" x="7" y="6.5" width="24" height="20.5" filterUnits="userSpaceOnUse" color-interpolation-filters="sRGB">
<feFlood flood-opacity="0" result="BackgroundImageFix"/>
<feBlend mode="normal" in="SourceGraphic" in2="BackgroundImageFix" result="shape"/>
<feColorMatrix in="SourceAlpha" type="matrix" values="0 0 0 0 0 0 0 0 0 0 0 0 0 0 0 0 0 0 127 0" result="hardAlpha"/>
<feOffset dy="4"/>
<feGaussianBlur stdDeviation="2"/>
<feComposite in2="hardAlpha" operator="arithmetic" k2="-1" k3="1"/>
<feColorMatrix type="matrix" values="0 0 0 0 0 0 0 0 0 0 0 0 0 0 0 0 0 0 0.25 0"/>
<feBlend mode="normal" in2="shape" result="effect1_innerShadow_101_14"/>
</filter>
</defs>
</svg>
