<svg width="96" height="29" viewBox="0 0 96 29" fill="none" xmlns="http://www.w3.org/2000/svg">
<rect width="96" height="29" rx="10" fill="#152620"/>
<path d="M0 0H66V19H0V0Z" fill="#152620"/>
<path d="M36.8587 19V11.9091H38.456V13.114H38.5391C38.6868 12.7077 38.9315 12.3907 39.2731 12.163C39.6147 11.9322 40.0225 11.8168 40.4964 11.8168C40.9766 11.8168 41.3813 11.9337 41.7106 12.1676C42.043 12.3984 42.2769 12.7139 42.4123 13.114H42.4862C42.6431 12.7201 42.9078 12.4061 43.2802 12.1722C43.6557 11.9353 44.1004 11.8168 44.6143 11.8168C45.2668 11.8168 45.7992 12.023 46.2116 12.4354C46.6241 12.8478 46.8303 13.4495 46.8303 14.2404V19H45.1545V14.4989C45.1545 14.0588 45.0375 13.7372 44.8036 13.5341C44.5697 13.3279 44.2835 13.2248 43.945 13.2248C43.5418 13.2248 43.2263 13.351 42.9986 13.6033C42.7739 13.8526 42.6616 14.1773 42.6616 14.5774V19H41.0227V14.4297C41.0227 14.0634 40.9119 13.7711 40.6903 13.5526C40.4718 13.334 40.1856 13.2248 39.8317 13.2248C39.5916 13.2248 39.3731 13.2863 39.1761 13.4094C38.9792 13.5295 38.8222 13.7003 38.7053 13.9219C38.5883 14.1404 38.5298 14.3958 38.5298 14.6882V19H36.8587ZM51.6649 19.1385C50.9539 19.1385 50.3399 18.9908 49.8229 18.6953C49.3089 18.3968 48.9134 17.9751 48.6365 17.4304C48.3595 16.8826 48.221 16.2378 48.221 15.4961C48.221 14.7667 48.3595 14.1265 48.6365 13.5756C48.9165 13.0217 49.3074 12.5908 49.809 12.283C50.3107 11.9722 50.9001 11.8168 51.5771 11.8168C52.0142 11.8168 52.4266 11.8875 52.8144 12.0291C53.2052 12.1676 53.5499 12.383 53.8485 12.6754C54.1501 12.9678 54.387 13.3402 54.5594 13.7926C54.7317 14.242 54.8179 14.7775 54.8179 15.3991V15.9116H49.0058V14.7852H53.216C53.2129 14.4651 53.1437 14.1804 53.0083 13.9311C52.8728 13.6787 52.6836 13.4802 52.4404 13.3356C52.2004 13.1909 51.9203 13.1186 51.6002 13.1186C51.2586 13.1186 50.9585 13.2017 50.7 13.3679C50.4415 13.531 50.2399 13.7464 50.0953 14.0142C49.9537 14.2789 49.8814 14.5697 49.8783 14.8867V15.87C49.8783 16.2824 49.9537 16.6364 50.1045 16.9318C50.2553 17.2242 50.4661 17.4489 50.7369 17.6058C51.0078 17.7597 51.3248 17.8366 51.6879 17.8366C51.9311 17.8366 52.1511 17.8028 52.3481 17.7351C52.5451 17.6643 52.7159 17.5612 52.8605 17.4258C53.0052 17.2904 53.1144 17.1226 53.1883 16.9226L54.7487 17.098C54.6502 17.5104 54.4624 17.8705 54.1855 18.1783C53.9115 18.483 53.5607 18.7199 53.1329 18.8892C52.7051 19.0554 52.2158 19.1385 51.6649 19.1385ZM58.8631 19.1246C58.306 19.1246 57.8075 18.9815 57.3674 18.6953C56.9273 18.4091 56.5795 17.9936 56.324 17.4489C56.0686 16.9041 55.9409 16.2424 55.9409 15.4638C55.9409 14.6759 56.0701 14.0111 56.3287 13.4695C56.5903 12.9247 56.9426 12.5138 57.3858 12.2369C57.829 11.9568 58.323 11.8168 58.8677 11.8168C59.2832 11.8168 59.6248 11.8875 59.8926 12.0291C60.1603 12.1676 60.3727 12.3353 60.5297 12.5323C60.6866 12.7262 60.8082 12.9093 60.8944 13.0817H60.9636V9.54545H62.6394V19H60.9959V17.8828H60.8944C60.8082 18.0552 60.6835 18.2383 60.5204 18.4322C60.3573 18.623 60.1419 18.7861 59.8741 18.9215C59.6064 19.0569 59.2694 19.1246 58.8631 19.1246ZM59.3294 17.7536C59.6833 17.7536 59.9849 17.6581 60.2342 17.4673C60.4835 17.2734 60.6728 17.0041 60.802 16.6594C60.9313 16.3147 60.9959 15.9131 60.9959 15.4545C60.9959 14.996 60.9313 14.5974 60.802 14.2589C60.6758 13.9203 60.4881 13.6572 60.2388 13.4695C59.9926 13.2817 59.6895 13.1879 59.3294 13.1879C58.957 13.1879 58.6461 13.2848 58.3968 13.4787C58.1475 13.6726 57.9598 13.9403 57.8336 14.282C57.7074 14.6236 57.6444 15.0144 57.6444 15.4545C57.6444 15.8977 57.7074 16.2932 57.8336 16.641C57.9629 16.9857 58.1522 17.258 58.4015 17.4581C58.6538 17.6551 58.9631 17.7536 59.3294 17.7536ZM64.4202 19V11.9091H66.0914V19H64.4202ZM65.2604 10.9027C64.9957 10.9027 64.768 10.815 64.5771 10.6396C64.3863 10.4611 64.2909 10.2472 64.2909 9.99787C64.2909 9.7455 64.3863 9.5316 64.5771 9.35618C64.768 9.17767 64.9957 9.08842 65.2604 9.08842C65.5281 9.08842 65.7559 9.17767 65.9436 9.35618C66.1344 9.5316 66.2298 9.7455 66.2298 9.99787C66.2298 10.2472 66.1344 10.4611 65.9436 10.6396C65.7559 10.815 65.5281 10.9027 65.2604 10.9027ZM72.3294 16.0178V11.9091H74.0005V19H72.3801V17.7397H72.3063C72.1462 18.1367 71.8831 18.4614 71.5169 18.7138C71.1537 18.9661 70.7059 19.0923 70.1735 19.0923C69.7087 19.0923 69.2979 18.9892 68.9409 18.783C68.5869 18.5737 68.31 18.2706 68.1099 17.8736C67.9099 17.4735 67.8098 16.9903 67.8098 16.424V11.9091H69.481V16.1655C69.481 16.6148 69.6041 16.9718 69.8503 17.2365C70.0965 17.5012 70.4197 17.6335 70.8198 17.6335C71.066 17.6335 71.3045 17.5735 71.5353 17.4535C71.7662 17.3335 71.9554 17.1549 72.1032 16.918C72.254 16.6779 72.3294 16.3778 72.3294 16.0178ZM75.719 19V11.9091H77.3163V13.114H77.3994C77.5471 12.7077 77.7918 12.3907 78.1334 12.163C78.4751 11.9322 78.8828 11.8168 79.3568 11.8168C79.8369 11.8168 80.2416 11.9337 80.5709 12.1676C80.9033 12.3984 81.1372 12.7139 81.2726 13.114H81.3465C81.5035 12.7201 81.7681 12.4061 82.1405 12.1722C82.516 11.9353 82.9607 11.8168 83.4747 11.8168C84.1272 11.8168 84.6596 12.023 85.072 12.4354C85.4844 12.8478 85.6906 13.4495 85.6906 14.2404V19H84.0148V14.4989C84.0148 14.0588 83.8979 13.7372 83.664 13.5341C83.4301 13.3279 83.1439 13.2248 82.8053 13.2248C82.4021 13.2248 82.0867 13.351 81.8589 13.6033C81.6343 13.8526 81.5219 14.1773 81.5219 14.5774V19H79.8831V14.4297C79.8831 14.0634 79.7723 13.7711 79.5507 13.5526C79.3322 13.334 79.046 13.2248 78.692 13.2248C78.452 13.2248 78.2335 13.2863 78.0365 13.4094C77.8395 13.5295 77.6826 13.7003 77.5656 13.9219C77.4487 14.1404 77.3902 14.3958 77.3902 14.6882V19H75.719Z" fill="white"/>
<g clip-path="url(#clip0_101_2)" filter="url(#filter0_i_101_2)">
<path d="M9.87006 6.14923C6.79006 6.73578 4.28006 9.02233 3.34006 12.1141C3.10006 12.8995 3.07006 13.1779 3.06006 14.4504C3.06006 15.6533 3.09006 16.0212 3.28006 16.6674C4.14006 19.6598 6.25006 21.8171 9.13006 22.6422C13.0901 23.7855 17.2901 21.8867 19.0601 18.1785C19.7301 16.7767 19.8501 16.22 19.8501 14.5001C19.8501 12.7405 19.6701 11.975 18.9501 10.5732C17.8701 8.50537 15.9301 6.92467 13.7001 6.29835C12.7001 6.01999 10.9201 5.9504 9.87006 6.14923Z" fill="#0D758B"/>
<path d="M24.2802 6.59657C22.7402 7.05388 21.3602 9.40008 20.9002 12.3129C20.7202 13.4463 20.7402 15.7925 20.9402 16.9357C21.3902 19.4808 22.5302 21.5287 23.8602 22.2048C24.5102 22.5328 25.4602 22.5428 26.0502 22.2346C29.4202 20.4749 30.3102 12.2831 27.5802 8.22698C26.6502 6.83516 25.4502 6.24861 24.2802 6.59657Z" fill="#0D758B"/>
<path d="M31.3202 7.36188C31.1302 7.44141 30.7402 8.25662 30.5602 9.01217C29.6502 12.6408 29.9802 19.918 31.1102 21.3496C31.6102 21.9759 32.0602 21.5186 32.4402 19.9976C33.3902 16.2794 33.0302 8.82328 31.8502 7.55077C31.6102 7.29229 31.5502 7.27241 31.3202 7.36188Z" fill="#0D758B"/>
</g>
<defs>
<filter id="filter0_i_101_2" x="3" y="6" width="30" height="21" filterUnits="userSpaceOnUse" color-interpolation-filters="sRGB">
<feFlood flood-opacity="0" result="BackgroundImageFix"/>
<feBlend mode="normal" in="SourceGraphic" in2="BackgroundImageFix" result="shape"/>
<feColorMatrix in="SourceAlpha" type="matrix" values="0 0 0 0 0 0 0 0 0 0 0 0 0 0 0 0 0 0 127 0" result="hardAlpha"/>
<feOffset dy="4"/>
<feGaussianBlur stdDeviation="2"/>
<feComposite in2="hardAlpha" operator="arithmetic" k2="-1" k3="1"/>
<feColorMatrix type="matrix" values="0 0 0 0 0 0 0 0 0 0 0 0 0 0 0 0 0 0 0.25 0"/>
<feBlend mode="normal" in2="shape" result="effect1_innerShadow_101_2"/>
</filter>
<clipPath id="clip0_101_2">
<rect width="30" height="17" fill="white" transform="translate(3 6)"/>
</clipPath>
</defs>
</svg>
