<svg width="96" height="29" viewBox="0 0 96 29" fill="none" xmlns="http://www.w3.org/2000/svg">
<g clip-path="url(#clip0_101_40)">
<rect width="96" height="29" rx="10" fill="#152620"/>
<path d="M0 0H66V19H0V0Z" fill="#152620"/>
<path d="M39.3221 19L37.3185 11.9091H39.022L40.2685 16.8949H40.3331L41.6072 11.9091H43.2923L44.5664 16.8672H44.6357L45.8636 11.9091H47.5717L45.5636 19H43.8232L42.4936 14.2081H42.3967L41.0671 19H39.3221ZM51.6746 19.1385C50.9637 19.1385 50.3497 18.9908 49.8327 18.6953C49.3187 18.3968 48.9232 17.9751 48.6462 17.4304C48.3692 16.8826 48.2307 16.2378 48.2307 15.4961C48.2307 14.7667 48.3692 14.1265 48.6462 13.5756C48.9263 13.0217 49.3171 12.5908 49.8188 12.283C50.3205 11.9722 50.9098 11.8168 51.5869 11.8168C52.0239 11.8168 52.4363 11.8875 52.8241 12.0291C53.215 12.1676 53.5597 12.383 53.8582 12.6754C54.1598 12.9678 54.3968 13.3402 54.5692 13.7926C54.7415 14.242 54.8277 14.7775 54.8277 15.3991V15.9116H49.0155V14.7852H53.2258C53.2227 14.4651 53.1534 14.1804 53.018 13.9311C52.8826 13.6787 52.6933 13.4802 52.4502 13.3356C52.2101 13.1909 51.9301 13.1186 51.61 13.1186C51.2684 13.1186 50.9683 13.2017 50.7098 13.3679C50.4513 13.531 50.2497 13.7464 50.105 14.0142C49.9635 14.2789 49.8911 14.5697 49.8881 14.8867V15.87C49.8881 16.2824 49.9635 16.6364 50.1143 16.9318C50.2651 17.2242 50.4759 17.4489 50.7467 17.6058C51.0175 17.7597 51.3345 17.8366 51.6977 17.8366C51.9408 17.8366 52.1609 17.8028 52.3579 17.7351C52.5548 17.6643 52.7256 17.5612 52.8703 17.4258C53.0149 17.2904 53.1242 17.1226 53.1981 16.9226L54.7584 17.098C54.6599 17.5104 54.4722 17.8705 54.1952 18.1783C53.9213 18.483 53.5705 18.7199 53.1427 18.8892C52.7149 19.0554 52.2255 19.1385 51.6746 19.1385ZM56.3153 19V9.54545H57.9865V13.0817H58.0558C58.1419 12.9093 58.2635 12.7262 58.4205 12.5323C58.5774 12.3353 58.7898 12.1676 59.0575 12.0291C59.3253 11.8875 59.6669 11.8168 60.0824 11.8168C60.6302 11.8168 61.1242 11.9568 61.5643 12.2369C62.0075 12.5138 62.3583 12.9247 62.6168 13.4695C62.8784 14.0111 63.0092 14.6759 63.0092 15.4638C63.0092 16.2424 62.8815 16.9041 62.6261 17.4489C62.3706 17.9936 62.0228 18.4091 61.5827 18.6953C61.1426 18.9815 60.6441 19.1246 60.087 19.1246C59.6808 19.1246 59.3438 19.0569 59.076 18.9215C58.8082 18.7861 58.5928 18.623 58.4297 18.4322C58.2696 18.2383 58.145 18.0552 58.0558 17.8828H57.9588V19H56.3153ZM57.9542 15.4545C57.9542 15.9131 58.0188 16.3147 58.1481 16.6594C58.2804 17.0041 58.4697 17.2734 58.7159 17.4673C58.9652 17.6581 59.2668 17.7536 59.6207 17.7536C59.9901 17.7536 60.2994 17.6551 60.5487 17.4581C60.7979 17.258 60.9857 16.9857 61.1119 16.641C61.2411 16.2932 61.3058 15.8977 61.3058 15.4545C61.3058 15.0144 61.2427 14.6236 61.1165 14.282C60.9903 13.9403 60.8026 13.6726 60.5533 13.4787C60.304 13.2848 59.9931 13.1879 59.6207 13.1879C59.2637 13.1879 58.9606 13.2817 58.7113 13.4695C58.462 13.6572 58.2727 13.9203 58.1435 14.2589C58.0173 14.5974 57.9542 14.996 57.9542 15.4545ZM70.0344 13.7834L68.5109 13.9496C68.4678 13.7957 68.3924 13.651 68.2847 13.5156C68.1801 13.3802 68.0385 13.271 67.86 13.1879C67.6815 13.1048 67.463 13.0632 67.2045 13.0632C66.8567 13.0632 66.5643 13.1386 66.3273 13.2894C66.0934 13.4402 65.978 13.6357 65.9811 13.8757C65.978 14.0819 66.0534 14.2496 66.2073 14.3789C66.3643 14.5082 66.6228 14.6143 66.9829 14.6974L68.1924 14.956C68.8633 15.1006 69.3619 15.3299 69.6881 15.6438C70.0174 15.9577 70.1836 16.3686 70.1867 16.8764C70.1836 17.3227 70.0528 17.7166 69.7943 18.0582C69.5389 18.3968 69.1834 18.6615 68.7279 18.8523C68.2724 19.0431 67.7492 19.1385 67.1583 19.1385C66.2904 19.1385 65.5918 18.9569 65.0624 18.5938C64.5331 18.2275 64.2176 17.7182 64.116 17.0657L65.7456 16.9087C65.8195 17.2288 65.9765 17.4704 66.2165 17.6335C66.4566 17.7966 66.769 17.8782 67.1537 17.8782C67.5507 17.8782 67.8692 17.7966 68.1093 17.6335C68.3524 17.4704 68.474 17.2688 68.474 17.0288C68.474 16.8256 68.3955 16.6579 68.2385 16.5256C68.0847 16.3932 67.8446 16.2917 67.5184 16.2209L66.3089 15.967C65.6287 15.8254 65.1255 15.5869 64.7993 15.2514C64.473 14.9129 64.3115 14.4851 64.3145 13.968C64.3115 13.531 64.43 13.1525 64.67 12.8324C64.9131 12.5092 65.2501 12.2599 65.681 12.0845C66.115 11.906 66.6151 11.8168 67.1814 11.8168C68.0123 11.8168 68.6663 11.9937 69.1434 12.3477C69.6235 12.7016 69.9205 13.1802 70.0344 13.7834ZM71.5647 19V11.9091H73.2359V19H71.5647ZM72.4049 10.9027C72.1402 10.9027 71.9125 10.815 71.7217 10.6396C71.5309 10.4611 71.4355 10.2472 71.4355 9.99787C71.4355 9.7455 71.5309 9.5316 71.7217 9.35618C71.9125 9.17767 72.1402 9.08842 72.4049 9.08842C72.6727 9.08842 72.9004 9.17767 73.0882 9.35618C73.279 9.5316 73.3744 9.7455 73.3744 9.99787C73.3744 10.2472 73.279 10.4611 73.0882 10.6396C72.9004 10.815 72.6727 10.9027 72.4049 10.9027ZM78.4952 11.9091V13.2017H74.4189V11.9091H78.4952ZM75.4252 10.2102H77.0964V16.8672C77.0964 17.0919 77.1303 17.2642 77.198 17.3842C77.2688 17.5012 77.3611 17.5812 77.475 17.6243C77.5888 17.6674 77.715 17.6889 77.8535 17.6889C77.9582 17.6889 78.0536 17.6812 78.1397 17.6658C78.229 17.6504 78.2967 17.6366 78.3429 17.6243L78.6245 18.9308C78.5352 18.9615 78.4075 18.9954 78.2413 19.0323C78.0782 19.0692 77.8781 19.0908 77.6412 19.0969C77.2226 19.1093 76.8456 19.0462 76.5101 18.9077C76.1747 18.7661 75.9084 18.5476 75.7115 18.2521C75.5176 17.9567 75.4222 17.5874 75.4252 17.1442V10.2102ZM82.9559 19.1385C82.2449 19.1385 81.6309 18.9908 81.1139 18.6953C80.5999 18.3968 80.2045 17.9751 79.9275 17.4304C79.6505 16.8826 79.512 16.2378 79.512 15.4961C79.512 14.7667 79.6505 14.1265 79.9275 13.5756C80.2075 13.0217 80.5984 12.5908 81.1001 12.283C81.6017 11.9722 82.1911 11.8168 82.8682 11.8168C83.3052 11.8168 83.7176 11.8875 84.1054 12.0291C84.4962 12.1676 84.8409 12.383 85.1395 12.6754C85.4411 12.9678 85.6781 13.3402 85.8504 13.7926C86.0228 14.242 86.1089 14.7775 86.1089 15.3991V15.9116H80.2968V14.7852H84.507C84.5039 14.4651 84.4347 14.1804 84.2993 13.9311C84.1639 13.6787 83.9746 13.4802 83.7314 13.3356C83.4914 13.1909 83.2113 13.1186 82.8912 13.1186C82.5496 13.1186 82.2496 13.2017 81.991 13.3679C81.7325 13.531 81.5309 13.7464 81.3863 14.0142C81.2447 14.2789 81.1724 14.5697 81.1693 14.8867V15.87C81.1693 16.2824 81.2447 16.6364 81.3955 16.9318C81.5463 17.2242 81.7571 17.4489 82.028 17.6058C82.2988 17.7597 82.6158 17.8366 82.979 17.8366C83.2221 17.8366 83.4421 17.8028 83.6391 17.7351C83.8361 17.6643 84.0069 17.5612 84.1515 17.4258C84.2962 17.2904 84.4055 17.1226 84.4793 16.9226L86.0397 17.098C85.9412 17.5104 85.7535 17.8705 85.4765 18.1783C85.2026 18.483 84.8517 18.7199 84.4239 18.8892C83.9961 19.0554 83.5068 19.1385 82.9559 19.1385Z" fill="white"/>
<g clip-path="url(#clip1_101_40)" filter="url(#filter0_i_101_40)">
<g filter="url(#filter1_i_101_40)">
<path d="M18.5304 6.01814C15.941 6.14012 13.5277 6.70379 11.4521 7.6722C10.4304 8.14717 9.40871 8.79031 8.6542 9.43345C6.55506 11.2169 5.66256 13.3866 6.11468 15.6154C6.43469 17.2029 7.47692 18.6907 9.15916 19.9696C9.5144 20.2394 10.3717 20.7772 10.8091 21.0063C11.8807 21.5682 13.0081 22.0025 14.2235 22.324C18.09 23.3498 22.4175 23.2019 26.0756 21.923C27.7138 21.3482 29.2228 20.5147 30.3443 19.563C31.7095 18.406 32.599 17.0255 32.8867 15.6135C33.195 14.0907 32.8721 12.5808 31.9414 11.191C31.5128 10.5571 30.9961 9.98604 30.3443 9.43345C29.5868 8.79031 28.5622 8.14717 27.5435 7.6722C25.688 6.80544 23.5214 6.25285 21.2725 6.07174C20.3771 6.00151 19.3466 5.98118 18.5304 6.01814ZM18.6478 8.71454V10.2485H16.7836C15.759 10.2485 14.9193 10.2429 14.9193 10.2374C14.9193 10.2134 15.2863 9.74579 15.4536 9.55543C16.1553 8.76629 16.9421 8.12314 17.8757 7.58164C18.1165 7.44304 18.6156 7.1806 18.639 7.1806C18.6449 7.1806 18.6478 7.86995 18.6478 8.71454ZM20.8351 7.4264C21.7687 7.93279 22.6142 8.57408 23.2982 9.29485C23.4979 9.50368 23.9823 10.0877 24.0528 10.206L24.0792 10.2485H22.2149H20.3506V8.71269V7.17876L20.4328 7.21387C20.4769 7.2342 20.6589 7.3303 20.8351 7.4264ZM15.618 7.53359C14.567 8.34492 13.8125 9.1396 13.2283 10.0452L13.105 10.2392L11.4726 10.2448C10.5742 10.2466 9.84028 10.2429 9.84028 10.2355C9.84028 10.2097 10.3482 9.80123 10.6535 9.58315C11.8836 8.70345 13.4954 7.99562 15.2423 7.57056C15.4918 7.50957 15.7032 7.45782 15.7061 7.45782C15.712 7.45782 15.6738 7.49109 15.618 7.53359ZM23.903 7.60567C24.5108 7.74982 25.3034 8.0141 26.0315 8.31719C26.9005 8.67942 27.6756 9.10264 28.3391 9.57946C28.6503 9.80123 29.1582 10.2097 29.1582 10.2355C29.1582 10.2429 28.4242 10.2466 27.5259 10.2448L25.8935 10.2392L25.7702 10.0452C25.186 9.1396 24.4462 8.36155 23.3599 7.51696L23.2806 7.45597L23.4832 7.50587C23.5918 7.53175 23.7827 7.5761 23.903 7.60567ZM12.5266 11.3222C12.5325 11.3278 12.5266 11.361 12.5119 11.3943C12.2858 11.8914 12.0275 12.9282 11.9688 13.5751C11.96 13.6823 11.9453 13.8135 11.9365 13.8652L11.9218 13.9632H9.82267H7.72353L7.74115 13.8745C7.82629 13.4032 7.85564 13.2812 7.92023 13.0742C8.07877 12.5586 8.41639 11.8896 8.72466 11.4738L8.83622 11.3222L8.9654 11.3167C9.17091 11.3074 12.509 11.313 12.5266 11.3222ZM18.4952 11.3185L18.6478 11.3204V12.6418V13.9632H16.1377H13.6275V13.9003C13.6275 13.6509 13.7508 12.9486 13.88 12.4755C14.0151 11.9746 14.2646 11.3315 14.3321 11.3167C14.3586 11.3111 18.0871 11.313 18.4952 11.3185ZM24.7309 11.3684C25.0245 12.0171 25.2271 12.7379 25.3269 13.4586C25.3504 13.6435 25.371 13.832 25.371 13.8782V13.9632H22.8608H20.3506V12.6436V11.3222L20.4475 11.3167C20.4974 11.313 21.478 11.3111 22.623 11.313H24.7075L24.7309 11.3684ZM29.9597 11.3185L30.1593 11.3204L30.2709 11.4719C30.5586 11.8656 30.9021 12.529 31.0518 12.98C31.1076 13.1482 31.2016 13.5437 31.228 13.7044C31.2368 13.771 31.2515 13.856 31.2603 13.893L31.2779 13.9632H29.1788H27.0767L27.062 13.8652C27.0532 13.8135 27.0327 13.6361 27.015 13.4753C26.9504 12.8839 26.7743 12.1428 26.5776 11.6253C26.513 11.4627 26.466 11.3259 26.4719 11.3204C26.4807 11.313 29.2991 11.3111 29.9597 11.3185ZM11.9365 15.1035C11.9453 15.1423 11.9541 15.2199 11.9541 15.2772C11.9541 15.4047 12.0275 15.9166 12.0891 16.1994C12.1948 16.7113 12.4033 17.3914 12.5295 17.6446C12.5442 17.676 12.4444 17.6779 10.6917 17.6779H8.83916L8.73346 17.5337C8.39584 17.0754 8.06996 16.4267 7.90555 15.8815C7.85271 15.7078 7.82629 15.5895 7.74115 15.1219L7.72353 15.0351H9.81973H11.9159L11.9365 15.1035ZM18.6478 16.3565V17.6779H16.4665H14.2881L14.1648 17.3859C13.9006 16.7686 13.7009 15.9554 13.6393 15.2606L13.6187 15.0351H16.1318H18.6478V16.3565ZM25.371 15.0979C25.371 15.2254 25.2799 15.8446 25.2212 16.107C25.1273 16.5376 24.9922 16.9719 24.8454 17.3323L24.7075 17.6687L22.529 17.6742L20.3506 17.6779V16.3565V15.0351H22.8608H25.371V15.0979ZM31.2573 15.1312C31.0871 16.0552 30.9139 16.508 30.4559 17.2436C30.3678 17.3859 30.265 17.5411 30.2269 17.5892L30.1564 17.6779H28.3039C26.5541 17.6779 26.4543 17.676 26.469 17.6446C26.5071 17.5689 26.6686 17.129 26.7214 16.9516C26.8565 16.5117 26.9945 15.8113 27.0297 15.4047C27.0385 15.2883 27.0532 15.1571 27.062 15.1127L27.0767 15.0351H29.1758H31.275L31.2573 15.1312ZM13.2283 18.9531C13.8125 19.8605 14.5641 20.6497 15.618 21.4647L15.7149 21.5404L15.5153 21.4924C14.2617 21.1967 13.2488 20.8456 12.233 20.3503C11.6077 20.0472 10.9119 19.6184 10.3775 19.2118C10.1251 19.0178 9.84028 18.7794 9.84028 18.7609C9.84028 18.7553 10.5742 18.7516 11.4726 18.7535L13.105 18.759L13.2283 18.9531ZM18.6478 20.2856C18.6478 21.7456 18.6449 21.8214 18.5979 21.7973C18.1018 21.5608 17.2974 21.0692 16.8687 20.7458C16.1993 20.2412 15.6034 19.6572 15.1366 19.0492C15.0485 18.9365 14.9633 18.8219 14.9487 18.796L14.9193 18.7498H16.7836H18.6478V20.2856ZM24.0792 18.7609C24.0792 18.7664 23.9882 18.8884 23.8795 19.0326C23.5272 19.4946 23.0663 19.9732 22.5819 20.3872C21.9889 20.8899 21.0964 21.4665 20.3888 21.8047C20.3595 21.8195 20.3506 21.5127 20.3506 20.2856V18.7498H22.2149C23.2395 18.7498 24.0792 18.7553 24.0792 18.7609ZM29.1582 18.7627C29.1582 18.7794 28.7795 19.0954 28.5769 19.2451C27.4231 20.1119 26.0139 20.7901 24.3874 21.2614C23.9265 21.3944 23.2748 21.5441 23.3217 21.5053C23.3423 21.4887 23.4186 21.4296 23.4949 21.3741C24.4197 20.6774 25.3005 19.7219 25.873 18.7905L25.8994 18.7498H27.5288C28.4242 18.7498 29.1582 18.7553 29.1582 18.7627Z" fill="#0D758B"/>
</g>
</g>
</g>
<defs>
<filter id="filter0_i_101_40" x="6" y="6" width="27" height="21" filterUnits="userSpaceOnUse" color-interpolation-filters="sRGB">
<feFlood flood-opacity="0" result="BackgroundImageFix"/>
<feBlend mode="normal" in="SourceGraphic" in2="BackgroundImageFix" result="shape"/>
<feColorMatrix in="SourceAlpha" type="matrix" values="0 0 0 0 0 0 0 0 0 0 0 0 0 0 0 0 0 0 127 0" result="hardAlpha"/>
<feOffset dy="4"/>
<feGaussianBlur stdDeviation="2"/>
<feComposite in2="hardAlpha" operator="arithmetic" k2="-1" k3="1"/>
<feColorMatrix type="matrix" values="0 0 0 0 0 0 0 0 0 0 0 0 0 0 0 0 0 0 0.25 0"/>
<feBlend mode="normal" in2="shape" result="effect1_innerShadow_101_40"/>
</filter>
<filter id="filter1_i_101_40" x="6" y="6" width="27" height="21" filterUnits="userSpaceOnUse" color-interpolation-filters="sRGB">
<feFlood flood-opacity="0" result="BackgroundImageFix"/>
<feBlend mode="normal" in="SourceGraphic" in2="BackgroundImageFix" result="shape"/>
<feColorMatrix in="SourceAlpha" type="matrix" values="0 0 0 0 0 0 0 0 0 0 0 0 0 0 0 0 0 0 127 0" result="hardAlpha"/>
<feOffset dy="4"/>
<feGaussianBlur stdDeviation="2"/>
<feComposite in2="hardAlpha" operator="arithmetic" k2="-1" k3="1"/>
<feColorMatrix type="matrix" values="0 0 0 0 0 0 0 0 0 0 0 0 0 0 0 0 0 0 0.25 0"/>
<feBlend mode="normal" in2="shape" result="effect1_innerShadow_101_40"/>
</filter>
<clipPath id="clip0_101_40">
<rect width="96" height="29" rx="10" fill="white"/>
</clipPath>
<clipPath id="clip1_101_40">
<rect width="27" height="17" fill="white" transform="translate(6 6)"/>
</clipPath>
</defs>
</svg>
